<?xml version="1.0" standalone="no"?><!DOCTYPE svg PUBLIC "-//W3C//DTD SVG 1.1//EN" "http://www.w3.org/Graphics/SVG/1.1/DTD/svg11.dtd"><svg t="1776159037066" class="icon" viewBox="0 0 1024 1024" version="1.1" xmlns="http://www.w3.org/2000/svg" p-id="23955" xmlns:xlink="http://www.w3.org/1999/xlink" width="200" height="200"><path d="M532.52096 237.568A299.29472 299.29472 0 0 0 375.6032 281.88672a291.10272 291.10272 0 0 0-108.87168 119.48032 284.0576 284.0576 0 0 0-27.2384 158.02368A286.1056 286.1056 0 0 0 302.2848 707.3792c5.40672 6.5536 12.6976 13.9264 20.39808 21.7088l2.08896 2.12992c8.6016 8.68352 17.73568 18.0224 26.17344 28.13952 16.9984 20.35712 29.98272 42.3936 29.98272 65.7408v87.77728c0 20.84864 8.47872 40.79616 23.47008 55.5008 14.99136 14.66368 35.26656 22.89664 56.40192 22.89664h143.36c21.13536 0 41.45152-8.192 56.44288-22.9376 14.99136-14.66368 23.42912-34.6112 23.42912-55.45984v-87.77728c0-23.3472 12.98432-45.38368 29.98272-65.7408 8.43776-10.07616 17.57184-19.41504 26.13248-28.09856l2.17088-2.17088c7.65952-7.74144 14.9504-15.11424 20.2752-21.62688a286.1056 286.1056 0 0 0 62.8736-147.94752 284.0576 284.0576 0 0 0-27.15648-158.02368 291.10272 291.10272 0 0 0-108.83072-119.52128A299.33568 299.33568 0 0 0 532.52096 237.568z m-110.1824 117.67808A210.1248 210.1248 0 0 1 532.48 324.15744a210.1248 210.1248 0 0 1 110.1824 31.1296 203.9808 203.9808 0 0 1 76.26752 83.72224 198.69696 198.69696 0 0 1-24.9856 214.05696c-1.2288 1.51552-8.02816 8.6016-15.5648 16.384l-7.70048 7.86432-9.216 9.50272c-34.16064 36.4544-56.9344 70.98368-63.488 112.47616H466.944c-6.63552-41.49248-29.36832-76.02176-63.56992-112.51712l-10.36288-10.69056-6.5536-6.67648c-7.49568-7.7824-14.336-14.86848-15.60576-16.384a198.69696 198.69696 0 0 1-24.86272-214.05696 203.9808 203.9808 0 0 1 76.30848-83.72224z m46.6944 549.39648v-18.75968h126.976v18.75968h-126.976z" fill="#666666" p-id="23956"></path><path d="M571.10528 40.96h-77.25056v122.88h77.25056V40.96zM259.39968 143.9744L204.8 201.89184 286.72 288.768l54.59968-57.91744-81.92-86.87616zM860.16 201.89184l-54.59968-57.9584v0.04096l-81.92 86.87616L778.24 288.768l81.92-86.87616z" fill="#666666" p-id="23957"></path></svg>