<?xml version="1.0" standalone="no"?><!DOCTYPE svg PUBLIC "-//W3C//DTD SVG 1.1//EN" "http://www.w3.org/Graphics/SVG/1.1/DTD/svg11.dtd"><svg t="1776159067640" class="icon" viewBox="0 0 1024 1024" version="1.1" xmlns="http://www.w3.org/2000/svg" p-id="25850" xmlns:xlink="http://www.w3.org/1999/xlink" width="200" height="200"><path d="M979.909791 0a31.158983 31.158983 0 1 1-31.158984 31.158983A31.158983 31.158983 0 0 1 979.909791 0M844.188981 2.0405a29.118483 29.118483 0 1 1-29.118484 29.118483 29.118483 29.118483 0 0 1 29.118484-29.118483M708.468171 4.081a27.077984 27.077984 0 1 1-27.077984 27.022835 27.022835 27.022835 0 0 1 27.077984-27.022835M572.692212 6.121499A24.982335 24.982335 0 1 1 547.875323 31.158983a24.982335 24.982335 0 0 1 25.037484-25.037484M436.971402 8.161999a22.941835 22.941835 0 1 1-22.996984 22.941836 22.941835 22.941835 0 0 1 22.996984-22.941836M301.250592 10.202499a20.901336 20.901336 0 1 1-20.956484 20.901336 20.901336 20.901336 0 0 1 20.956484-20.901336M165.529782 12.242999a18.860836 18.860836 0 1 1-18.860836 18.860836 18.860836 18.860836 0 0 1 18.860836-18.860836M29.753823 14.283498A16.820336 16.820336 0 1 1 12.933487 31.158983a16.820336 16.820336 0 0 1 16.820336-16.875485M979.909791 137.375269a31.158983 31.158983 0 1 1-31.158984 31.158983 31.158983 31.158983 0 0 1 31.158984-31.158983M844.188981 139.415769a29.118483 29.118483 0 1 1-29.118484 29.118483 29.118483 29.118483 0 0 1 29.118484-29.118483M708.468171 141.456269a27.077984 27.077984 0 1 1-27.077984 27.022835 27.022835 27.022835 0 0 1 27.077984-27.022835M572.692212 143.386471a24.982335 24.982335 0 1 1-24.816889 25.147781 24.982335 24.982335 0 0 1 24.816889-25.147781M436.971402 145.537268a22.941835 22.941835 0 1 1-22.996984 22.941836 22.941835 22.941835 0 0 1 22.996984-22.941836M301.250592 147.577768a20.901336 20.901336 0 1 1-20.956484 20.901336 20.901336 20.901336 0 0 1 20.956484-20.901336M165.529782 149.618268a18.860836 18.860836 0 1 1-18.860836 18.860836 18.860836 18.860836 0 0 1 18.860836-18.860836M29.753823 151.713916A16.820336 16.820336 0 1 1 12.933487 168.534252a16.820336 16.820336 0 0 1 16.820336-16.820336M979.909791 274.750539a31.158983 31.158983 0 1 1-31.158984 31.158983 31.158983 31.158983 0 0 1 31.158984-31.158983M844.188981 276.791038a29.118483 29.118483 0 1 1-29.118484 29.118484 29.118483 29.118483 0 0 1 29.118484-29.118484M708.468171 278.886687a27.077984 27.077984 0 1 1-27.077984 27.022835 27.022835 27.022835 0 0 1 27.077984-27.022835M572.692212 280.927187a25.037484 25.037484 0 1 1-24.816889 24.982335 24.982335 24.982335 0 0 1 25.037484-25.037484M436.971402 282.967686a22.996984 22.996984 0 1 1-22.996984 22.941836 22.941835 22.941835 0 0 1 22.996984-22.941836M301.250592 285.008186a20.901336 20.901336 0 1 1-20.956484 20.901336 20.901336 20.901336 0 0 1 20.956484-20.901336M165.529782 286.772943a18.860836 18.860836 0 1 1-18.860836 18.860836A18.860836 18.860836 0 0 1 165.529782 286.772943M29.753823 289.089186A16.820336 16.820336 0 1 1 12.933487 305.909522a16.820336 16.820336 0 0 1 16.820336-16.820336M979.909791 412.180956a31.158983 31.158983 0 1 1-31.158984 31.158984 31.158983 31.158983 0 0 1 31.158984-31.158984M844.188981 414.221456a29.118483 29.118483 0 1 1-29.118484 29.118484 29.118483 29.118483 0 0 1 29.118484-29.118484M708.468171 416.261956a27.077984 27.077984 0 1 1-27.077984 27.022835 27.022835 27.022835 0 0 1 27.077984-27.022835M572.692212 418.302456a25.037484 25.037484 0 1 1-24.816889 24.982335 24.982335 24.982335 0 0 1 25.037484-25.037484M436.971402 420.342956a22.996984 22.996984 0 1 1-22.996984 22.996984 22.941835 22.941835 0 0 1 22.996984-22.996984M301.250592 422.383455a20.901336 20.901336 0 1 1-20.956484 20.901336 20.901336 20.901336 0 0 1 20.956484-20.901336M165.529782 424.64455a18.860836 18.860836 0 1 1-18.860836 18.860836A18.860836 18.860836 0 0 1 165.529782 424.64455M29.753823 426.464455A16.820336 16.820336 0 1 1 12.933487 443.284791a16.820336 16.820336 0 0 1 16.820336-16.820336M979.909791 549.556226a31.158983 31.158983 0 1 1-31.158984 31.158983 31.158983 31.158983 0 0 1 31.158984-31.158983M844.188981 551.486428a29.118483 29.118483 0 1 1-29.118484 29.118484 29.118483 29.118483 0 0 1 29.118484-29.118484M708.468171 553.637225a27.077984 27.077984 0 1 1-27.077984 27.022835 27.022835 27.022835 0 0 1 27.077984-27.022835M572.692212 555.677725a24.982335 24.982335 0 1 1-24.816889 24.982335 24.982335 24.982335 0 0 1 25.037484-25.037484M436.971402 557.718225a22.996984 22.996984 0 1 1-22.996984 22.941835 22.941835 22.941835 0 0 1 22.996984-22.941835M301.250592 559.758725a20.901336 20.901336 0 1 1-20.956484 20.901335 20.901336 20.901336 0 0 1 20.956484-20.901335M184.390618 580.715209a18.860836 18.860836 0 1 1-18.860836-18.860836 18.860836 18.860836 0 0 1 18.860836 18.860836zM29.753823 563.839724A16.820336 16.820336 0 1 1 12.933487 580.715209a16.820336 16.820336 0 0 1 16.820336-16.820336M979.909791 686.931495a31.158983 31.158983 0 1 1-31.158984 31.158983 31.103835 31.103835 0 0 1 31.158984-31.158983M844.188981 688.971995a29.118483 29.118483 0 1 1-29.118484 29.118483 29.118483 29.118483 0 0 1 29.118484-29.118483M708.468171 691.012495a27.077984 27.077984 0 1 1-27.077984 27.022835 27.022835 27.022835 0 0 1 27.077984-27.022835M572.692212 693.052994a25.037484 25.037484 0 1 1-24.816889 25.037484 24.982335 24.982335 0 0 1 25.037484-25.037484M436.971402 694.8729a22.996984 22.996984 0 1 1-22.996984 22.996984 22.941835 22.941835 0 0 1 22.996984-22.996984M301.250592 697.133994a20.901336 20.901336 0 1 1-20.956484 20.901336 20.901336 20.901336 0 0 1 20.956484-20.901336M165.529782 699.174494a18.860836 18.860836 0 1 1-18.860836 18.860836 18.860836 18.860836 0 0 1 18.860836-18.860836M29.753823 701.214994A16.820336 16.820336 0 1 1 12.933487 718.090478a16.820336 16.820336 0 0 1 16.820336-16.820336M979.909791 824.306764a31.158983 31.158983 0 1 1-31.158984 31.158984 31.103835 31.103835 0 0 1 31.158984-31.158984M844.188981 826.347264a29.118483 29.118483 0 1 1-29.118484 29.118484 29.118483 29.118483 0 0 1 29.118484-29.118484M708.468171 828.387764a27.077984 27.077984 0 1 1-27.077984 27.077984 27.077984 27.077984 0 0 1 27.077984-27.077984M572.692212 830.428264a24.982335 24.982335 0 1 1-24.816889 25.037484 24.982335 24.982335 0 0 1 25.037484-25.037484M436.971402 832.744507a22.996984 22.996984 0 1 1-22.996984 22.996984 22.941835 22.941835 0 0 1 22.996984-22.996984M301.250592 834.564412a20.901336 20.901336 0 1 1-20.956484 20.901336 20.901336 20.901336 0 0 1 20.956484-20.901336M165.529782 836.604912a18.860836 18.860836 0 1 1-18.860836 18.860836 18.860836 18.860836 0 0 1 18.860836-18.860836M29.753823 838.645411A16.820336 16.820336 0 1 1 12.933487 855.465748a16.820336 16.820336 0 0 1 16.820336-16.820337M979.909791 961.682034a31.158983 31.158983 0 1 1-31.158984 31.158983 31.103835 31.103835 0 0 1 31.158984-31.158983M844.188981 963.722533a29.118483 29.118483 0 1 1-29.118484 29.118484 29.118483 29.118483 0 0 1 29.118484-29.118484M708.468171 965.763033a27.077984 27.077984 0 1 1-27.077984 27.077984 27.077984 27.077984 0 0 1 27.077984-27.077984M572.692212 967.858682A24.982335 24.982335 0 1 1 547.875323 992.675571a24.982335 24.982335 0 0 1 25.037484-24.982335M436.971402 969.899181a22.941835 22.941835 0 1 1-22.941835 22.77639 22.941835 22.941835 0 0 1 22.996984-22.996984M298.713754 964.27402a20.901336 20.901336 0 1 1-21.066781 20.956484 20.901336 20.901336 0 0 1 20.901335-20.901336M165.529782 973.980181a18.860836 18.860836 0 1 1-18.915984 18.69539 18.860836 18.860836 0 0 1 18.860835-18.860836M29.753823 976.130978A16.820336 16.820336 0 1 1 12.933487 992.675571a16.820336 16.820336 0 0 1 16.820336-16.544593" p-id="25851"></path></svg>