<?xml version="1.0" encoding="UTF-8" standalone="no"?>
<svg
   version="1.0"
   width="800.000000"
   height="800.000000"
   viewBox="0 0 800.000000 800.000000"
   preserveAspectRatio="xMidYMid meet"
   id="svg17"
   sodipodi:docname="圆形频谱.svg"
   inkscape:version="1.4.2 (f4327f4, 2025-05-13)"
   xmlns:inkscape="http://www.inkscape.org/namespaces/inkscape"
   xmlns:sodipodi="http://sodipodi.sourceforge.net/DTD/sodipodi-0.dtd"
   xmlns="http://www.w3.org/2000/svg"
   xmlns:svg="http://www.w3.org/2000/svg"
   xmlns:rdf="http://www.w3.org/1999/02/22-rdf-syntax-ns#"
   xmlns:dc="http://purl.org/dc/elements/1.1/">
  <defs
     id="defs17" />
  <sodipodi:namedview
     id="namedview17"
     pagecolor="#ffffff"
     bordercolor="#000000"
     borderopacity="0.25"
     inkscape:showpageshadow="2"
     inkscape:pageopacity="0.0"
     inkscape:pagecheckerboard="0"
     inkscape:deskcolor="#d1d1d1"
     inkscape:zoom="1.00875"
     inkscape:cx="400"
     inkscape:cy="400"
     inkscape:window-width="1920"
     inkscape:window-height="1009"
     inkscape:window-x="-8"
     inkscape:window-y="-8"
     inkscape:window-maximized="1"
     inkscape:current-layer="svg17" />
  <metadata
     id="metadata1">
    <rdf:RDF>
      <rdf:Description
         dc:format="image/svg+xml"
         dc:Label="1"
         dc:ContentProducer="001191330110MACRLGPT8B00000"
         dc:ProduceID="411467272"
         dc:ReservedCode1="+m3UF9aZVl1cUAWpIi9uJBIT6JYQCZLQ5ofCJfj8uL4="
         dc:ContentPropagator="001191330110MACRLGPT8B00000"
         dc:PropagateID="411467272"
         dc:ReservedCode2="+m3UF9aZVl1cUAWpIi9uJBIT6JYQCZLQ5ofCJfj8uL4=" />
    </rdf:RDF>
  </metadata>
  <g
     transform="matrix(0.17657752,0,0,-0.16588297,-300.11625,1046.9303)"
     fill="#000000"
     stroke="none"
     id="g17">
    <path
       d="m 3945,6115 -25,-24 v -446 c 0,-430 1,-446 20,-465 28,-28 69,-36 99,-19 46,26 49,47 46,258 -2,108 -4,305 -4,439 -1,228 -2,243 -21,262 -29,29 -84,27 -115,-5 z"
       id="path1" />
    <path
       d="m 3169,5970 c -9,-5 -22,-22 -28,-38 -10,-25 -7,-41 29,-132 22,-58 51,-130 64,-160 13,-30 68,-163 122,-295 53,-132 102,-246 108,-254 18,-24 57,-32 93,-20 36,12 53,34 53,72 0,13 -49,142 -109,288 -60,145 -132,322 -161,392 -29,71 -59,135 -67,143 -16,16 -79,18 -104,4 z"
       id="path2" />
    <path
       d="m 4742,5973 c -18,-7 -30,-33 -128,-274 -227,-558 -223,-548 -212,-580 20,-59 111,-75 143,-26 7,12 27,56 43,97 16,41 85,210 152,375 68,165 125,314 127,332 9,58 -62,101 -125,76 z"
       id="path3" />
    <path
       d="m 2489,5511 c -48,-49 -41,-71 59,-173 279,-287 527,-530 547,-538 30,-11 82,5 95,30 6,10 10,34 10,52 0,30 -28,61 -303,336 -166,167 -309,307 -317,312 -27,18 -61,10 -91,-19 z"
       id="path4" />
    <path
       d="m 5118,5233 c -170,-170 -311,-318 -314,-331 -15,-56 42,-119 96,-107 15,4 147,128 333,313 274,274 307,310 307,339 0,17 -3,39 -6,48 -8,20 -55,45 -86,45 -16,0 -108,-86 -330,-307 z"
       id="path5" />
    <path
       d="m 3905,4888 c -36,-32 -40,-87 -8,-119 18,-18 36,-22 117,-25 114,-5 162,-14 266,-55 286,-110 471,-381 471,-688 0,-225 -102,-442 -270,-575 -85,-68 -123,-90 -207,-122 -140,-52 -265,-65 -396,-40 -166,33 -292,98 -404,210 -122,123 -191,267 -214,448 -20,159 22,340 111,478 44,69 149,177 206,213 53,33 67,53 67,93 0,41 -26,71 -69,79 -24,5 -42,-2 -93,-36 -173,-117 -306,-304 -364,-514 -30,-110 -32,-355 -4,-460 84,-319 333,-569 651,-657 108,-29 343,-32 454,-5 164,40 295,112 418,230 133,128 208,256 254,433 33,127 33,321 0,449 -42,161 -134,318 -252,431 -80,76 -137,114 -241,164 -110,53 -219,79 -353,87 -108,6 -111,5 -140,-19 z"
       id="path6" />
    <path
       d="m 2045,4845 c -33,-32 -34,-88 -2,-116 12,-11 171,-81 352,-155 182,-74 355,-146 386,-159 83,-37 119,-33 144,16 8,15 15,37 15,47 0,33 -38,70 -93,91 -28,11 -135,54 -237,96 -427,176 -501,205 -520,205 -12,0 -32,-11 -45,-25 z"
       id="path7" />
    <path
       d="m 5635,4764 c -137,-57 -313,-129 -390,-160 -77,-31 -148,-65 -157,-76 -40,-46 -6,-138 51,-138 16,0 203,72 417,160 403,166 434,183 434,236 0,33 -51,84 -82,83 -13,0 -135,-48 -273,-105 z"
       id="path8" />
    <path
       d="m 1903,4070 c -46,-19 -57,-83 -20,-124 l 22,-26 443,-2 444,-3 24,28 c 27,31 29,43 14,83 -21,54 -11,53 -475,53 -236,0 -440,-4 -452,-9 z"
       id="path9" />
    <path
       d="m 5195,4055 c -34,-33 -34,-83 1,-116 l 26,-24 411,-1 c 227,0 429,3 449,8 69,16 86,95 31,138 -25,19 -42,20 -460,20 h -434 z"
       id="path10" />
    <path
       d="m 2640,3524 c -113,-47 -288,-119 -390,-161 -194,-80 -230,-103 -230,-153 0,-40 38,-81 75,-82 44,-1 795,312 828,345 38,38 -7,138 -61,137 -9,0 -109,-39 -222,-86 z"
       id="path11" />
    <path
       d="m 5095,3584 c -30,-33 -34,-93 -7,-117 18,-16 61,-35 477,-207 306,-127 331,-136 368,-126 56,14 72,109 23,141 -34,23 -798,335 -819,335 -10,0 -29,-12 -42,-26 z"
       id="path12" />
    <path
       d="m 2778,2893 c -208,-207 -309,-316 -313,-334 -7,-31 16,-83 40,-93 9,-3 31,-6 48,-6 28,0 66,34 339,308 295,295 308,309 308,345 0,49 -36,87 -82,87 -29,0 -62,-30 -340,-307 z"
       id="path13" />
    <path
       d="m 4825,3175 c -26,-25 -32,-68 -15,-95 5,-8 145,-151 312,-317 285,-286 304,-303 338,-303 48,0 80,33 80,82 0,33 -19,55 -311,347 -287,287 -314,311 -346,311 -23,0 -42,-8 -58,-25 z"
       id="path14" />
    <path
       d="m 3477,2918 c -23,-17 -337,-789 -337,-828 0,-54 59,-91 113,-71 32,13 19,-17 211,454 140,341 154,381 144,408 -5,16 -18,34 -28,39 -26,14 -83,12 -103,-2 z"
       id="path15" />
    <path
       d="m 4415,2905 c -32,-31 -31,-52 4,-133 32,-73 97,-234 216,-527 84,-209 106,-241 159,-231 38,7 76,48 76,82 0,14 -6,37 -14,52 -8,15 -57,133 -109,262 -177,436 -198,485 -214,502 -25,27 -88,24 -118,-7 z"
       id="path16" />
    <path
       d="m 3941,2814 c -21,-26 -21,-37 -21,-466 v -440 l 30,-30 c 26,-25 36,-29 63,-24 18,4 41,16 52,27 19,19 20,35 23,452 2,448 0,477 -39,497 -36,20 -86,12 -108,-16 z"
       id="path17" />
  </g>
</svg>
