<?xml version="1.0" standalone="no"?><!DOCTYPE svg PUBLIC "-//W3C//DTD SVG 1.1//EN" "http://www.w3.org/Graphics/SVG/1.1/DTD/svg11.dtd"><svg t="1776133434007" class="icon" viewBox="0 0 1032 1024" version="1.1" xmlns="http://www.w3.org/2000/svg" p-id="5661" xmlns:xlink="http://www.w3.org/1999/xlink" width="201.5625" height="200"><path d="M516.424121 1024c-69.648117 0-137.248154-13.520007-200.899277-40.198596-61.482568-25.768331-116.713806-62.647163-164.127534-109.632535-47.440501-46.998758-84.694145-101.761481-110.730199-162.735375C13.680641 648.2375 0 581.146136 0 511.993307S13.680641 375.749114 40.653725 312.566506c26.036054-60.987281 63.289698-115.736617 110.730199-162.735375 47.413729-46.971986 102.644966-83.864204 164.127534-109.632535C379.175968 13.520007 446.762618 0 516.424121 0s137.248154 13.520007 200.899277 40.198596c61.495954 25.768331 116.713806 62.647163 164.127535 109.632535 47.440501 46.998758 84.707531 101.761481 110.730198 162.735375 26.973084 63.182608 40.653725 130.273972 40.653725 199.426801s-13.680641 136.244193-40.653725 199.426801c-26.036054 60.987281-63.289698 115.736617-110.730198 162.735375-47.413729 46.971986-102.63158 83.864204-164.127535 109.632535-63.651124 26.678589-131.25116 40.198596-200.899277 40.198596z m0-943.683125C275.955397 80.316875 80.316875 273.974247 80.316875 511.993307s195.638522 431.676432 436.107246 431.676432 436.107246-193.657372 436.107246-431.676432S756.879459 80.316875 516.424121 80.316875zM518.887172 816.595056c-81.883054 0-158.853393-31.885799-216.748474-89.78088-57.895081-57.895081-89.78088-134.878806-89.78088-216.748474s31.885799-158.853393 89.78088-216.748474c57.895081-57.895081 134.878806-89.78088 216.748474-89.78088s158.853393 31.885799 216.748474 89.78088c57.895081 57.895081 89.78088 134.878806 89.78088 216.748474s-31.885799 158.853393-89.78088 216.748474c-57.895081 57.895081-134.878806 89.78088-216.748474 89.78088z m-6.760004-528.177157c-125.93686 0-228.394421 102.45756-228.39442 228.39442S386.190308 745.20674 512.127168 745.20674 740.521589 642.74918 740.521589 516.812319s-102.45756-228.394421-228.394421-228.39442zM521.243134 608.212923c-54.374524 0-98.60235-44.241212-98.602351-98.60235s44.241212-98.60235 98.602351-98.60235 98.60235 44.241212 98.60235 98.60235-44.241212 98.60235-98.60235 98.60235z" p-id="5662"></path></svg>