<?xml version="1.0" standalone="no"?><!DOCTYPE svg PUBLIC "-//W3C//DTD SVG 1.1//EN" "http://www.w3.org/Graphics/SVG/1.1/DTD/svg11.dtd"><svg t="1776159714857" class="icon" viewBox="0 0 1024 1024" version="1.1" xmlns="http://www.w3.org/2000/svg" p-id="31863" xmlns:xlink="http://www.w3.org/1999/xlink" width="200" height="200"><path d="M709.3 943.5c-1.7 0-3.4-0.1-5-0.2-41.8-2.8-80.8-40.3-115.9-111.4-34.7-70.1-64-169.3-87.3-295-13.8-74.6-30.1-140.7-48.5-196.5-21.7-65.8-45.4-115.6-70.6-148.1-22.5-29-45.2-42.9-67.3-41.4-31.8 2.1-64.7 35.9-95.2 97.5-33.2 67.1-62.6 166.8-85.1 288.5-1.3 6.8-7.8 11.3-14.6 10-6.8-1.3-11.3-7.8-10-14.6 23.3-125.7 52.6-225 87.3-295 35.1-71.1 74.1-108.5 115.9-111.4 31-2.1 60.8 15.1 88.8 51 27 34.7 52.1 87.1 74.6 155.6 18.7 56.9 35.3 124.1 49.3 199.8 22.5 121.7 52 221.4 85.1 288.5 30.5 61.6 63.4 95.3 95.2 97.5 22.2 1.5 44.8-12.4 67.3-41.4 25.2-32.5 49-82.3 70.6-148.1 18.4-55.8 34.7-121.9 48.5-196.5 1.3-6.8 7.8-11.3 14.6-10 6.8 1.3 11.3 7.8 10 14.6-14 75.7-30.6 142.9-49.3 199.8-22.6 68.5-47.7 120.9-74.7 155.6-26.4 34-54.5 51.2-83.7 51.2z" p-id="31864"></path></svg>