<?xml version="1.0" encoding="UTF-8" standalone="no"?>
<svg
   version="1.0"
   width="800.000000"
   height="800.000000"
   viewBox="0 0 800.000000 800.000000"
   preserveAspectRatio="xMidYMid meet"
   id="svg1"
   sodipodi:docname="星系旋转.svg"
   inkscape:version="1.4.2 (f4327f4, 2025-05-13)"
   xmlns:inkscape="http://www.inkscape.org/namespaces/inkscape"
   xmlns:sodipodi="http://sodipodi.sourceforge.net/DTD/sodipodi-0.dtd"
   xmlns="http://www.w3.org/2000/svg"
   xmlns:svg="http://www.w3.org/2000/svg"
   xmlns:rdf="http://www.w3.org/1999/02/22-rdf-syntax-ns#"
   xmlns:dc="http://purl.org/dc/elements/1.1/">
  <defs
     id="defs1" />
  <sodipodi:namedview
     id="namedview1"
     pagecolor="#ffffff"
     bordercolor="#000000"
     borderopacity="0.25"
     inkscape:showpageshadow="2"
     inkscape:pageopacity="0.0"
     inkscape:pagecheckerboard="0"
     inkscape:deskcolor="#d1d1d1"
     inkscape:zoom="1.00875"
     inkscape:cx="400"
     inkscape:cy="400"
     inkscape:window-width="1920"
     inkscape:window-height="1009"
     inkscape:window-x="-8"
     inkscape:window-y="-8"
     inkscape:window-maximized="1"
     inkscape:current-layer="svg1" />
  <metadata
     id="metadata1">
    <rdf:RDF>
      <rdf:Description
         dc:format="image/svg+xml"
         dc:Label="1"
         dc:ContentProducer="001191330110MACRLGPT8B00000"
         dc:ProduceID="411510484"
         dc:ReservedCode1="9UeF7v5a+rKPVjSy2EUt2sWUQ+OW+nD4cUosVJZVvys="
         dc:ContentPropagator="001191330110MACRLGPT8B00000"
         dc:PropagateID="411510484"
         dc:ReservedCode2="9UeF7v5a+rKPVjSy2EUt2sWUQ+OW+nD4cUosVJZVvys=" />
    </rdf:RDF>
  </metadata>
  <g
     transform="matrix(0.12704156,0,0,-0.14515962,-73.481742,944.25726)"
     fill="#000000"
     stroke="none"
     id="g1">
    <path
       d="m 3970,5720 c -247,-18 -454,-59 -686,-135 -588,-193 -992,-557 -1085,-977 -31,-139 -23,-299 20,-428 32,-95 87,-204 136,-270 14,-19 60,-70 102,-112 161,-163 379,-277 643,-334 131,-29 442,-26 565,4 215,54 353,129 477,261 127,134 187,311 160,473 -15,89 -75,216 -131,277 l -41,44 80,-7 c 213,-18 445,-127 595,-280 188,-193 251,-436 169,-656 -125,-335 -550,-626 -1086,-745 -228,-50 -315,-58 -603,-59 -231,0 -292,3 -420,22 -472,72 -874,228 -1200,469 -117,87 -316,286 -388,389 -108,155 -203,377 -238,554 -7,36 -13,133 -13,215 0,235 38,384 162,634 36,74 62,136 56,138 -5,2 -56,30 -114,63 l -105,59 -19,-22 c -29,-34 -130,-250 -169,-362 -73,-212 -82,-266 -82,-510 1,-191 3,-232 22,-310 107,-442 362,-810 758,-1091 480,-341 1091,-524 1750,-524 458,0 867,88 1230,265 368,179 601,415 721,731 32,85 46,172 45,289 0,374 -229,697 -625,886 -346,164 -783,162 -1106,-7 -194,-102 -320,-250 -366,-434 -39,-155 15,-340 142,-479 l 36,-41 h -51 c -157,0 -421,93 -564,199 -371,274 -384,702 -32,1044 343,335 982,532 1606,496 416,-23 761,-113 1097,-283 532,-271 875,-679 978,-1166 25,-119 25,-363 0,-480 -89,-415 -342,-787 -740,-1084 -524,-392 -1200,-618 -1998,-668 l -188,-12 v -131 c 0,-73 2,-134 4,-136 7,-7 294,10 441,26 691,77 1277,276 1767,601 165,110 259,185 392,313 241,235 428,518 526,796 116,331 121,703 15,1022 -190,570 -702,1052 -1380,1298 -257,93 -466,138 -785,170 -103,10 -373,13 -480,5 z M 3868,4376 c 138,-70 199,-231 138,-361 -74,-160 -237,-222 -392,-149 -111,53 -184,202 -154,314 48,184 245,278 408,196 z"
       id="path1" />
  </g>
</svg>
