<?xml version="1.0" standalone="no"?><!DOCTYPE svg PUBLIC "-//W3C//DTD SVG 1.1//EN" "http://www.w3.org/Graphics/SVG/1.1/DTD/svg11.dtd"><svg t="1776129980419" class="icon" viewBox="0 0 1024 1024" version="1.1" xmlns="http://www.w3.org/2000/svg" p-id="1693" xmlns:xlink="http://www.w3.org/1999/xlink" width="200" height="200"><path d="M853.333333 979.171556c0 24.746667 22.926222 44.828444 51.2 44.828444 26.282667 0 47.900444-17.294222 50.858667-39.594667l0.341333-5.176889V351.914667c0-24.689778-22.926222-44.771556-51.2-44.771556-26.282667 0-47.900444 17.294222-50.858666 39.594667L853.333333 351.971556v627.2z m-265.500444-1.706667c0 25.713778 22.926222 46.535111 51.2 46.535111 26.282667 0 47.900444-17.976889 50.858667-41.130667l0.341333-5.404444V46.535111c0-25.713778-22.926222-46.535111-51.2-46.535111-26.225778 0-47.900444 17.976889-50.858667 41.130667l-0.341333 5.404444v930.929778z m-265.443556 1.706667c0 24.746667 22.926222 44.828444 51.2 44.828444 26.225778 0 47.900444-17.294222 50.858667-39.594667l0.341333-5.176889V351.914667c0-24.689778-22.926222-44.771556-51.2-44.771556-26.282667 0-47.900444 17.294222-50.858666 39.594667l-0.341334 5.176889v627.2zM56.888889 977.464889c0 25.713778 22.926222 46.535111 51.2 46.535111 26.282667 0 47.900444-17.976889 50.858667-41.130667l0.341333-5.404444V46.535111C159.288889 20.821333 136.362667 0 108.088889 0c-26.282667 0-47.900444 17.976889-50.858667 41.130667L56.888889 46.535111v930.929778z" fill="#1C1D1F" p-id="1694"></path></svg>