<?xml version="1.0" standalone="no"?><!DOCTYPE svg PUBLIC "-//W3C//DTD SVG 1.1//EN" "http://www.w3.org/Graphics/SVG/1.1/DTD/svg11.dtd"><svg t="1776159030116" class="icon" viewBox="0 0 1024 1024" version="1.1" xmlns="http://www.w3.org/2000/svg" p-id="22853" xmlns:xlink="http://www.w3.org/1999/xlink" width="200" height="200"><path d="M170.666667 832a64 64 0 1 1-128 0 64 64 0 0 1 128 0zM384 832a64 64 0 1 1-128 0 64 64 0 0 1 128 0zM597.333333 832a64 64 0 1 1-128 0 64 64 0 0 1 128 0zM810.666667 832a64 64 0 1 1-128 0 64 64 0 0 1 128 0zM1024 832a64 64 0 1 1-128 0 64 64 0 0 1 128 0zM234.666667 384a21.333333 21.333333 0 1 1-42.666667 0 21.333333 21.333333 0 0 1 42.666667 0zM469.333333 384a21.333333 21.333333 0 1 1-42.666666 0 21.333333 21.333333 0 0 1 42.666666 0zM661.333333 384a21.333333 21.333333 0 1 1-42.666666 0 21.333333 21.333333 0 0 1 42.666666 0zM874.666667 384a21.333333 21.333333 0 1 1-42.666667 0 21.333333 21.333333 0 0 1 42.666667 0zM149.333333 298.666667a21.333333 21.333333 0 1 1-42.666666 0 21.333333 21.333333 0 0 1 42.666666 0zM234.666667 224a10.666667 10.666667 0 1 1-21.333334 0 10.666667 10.666667 0 0 1 21.333334 0zM128 160a10.666667 10.666667 0 1 1-21.333333 0 10.666667 10.666667 0 0 1 21.333333 0zM362.666667 160a10.666667 10.666667 0 1 1-21.333334 0 10.666667 10.666667 0 0 1 21.333334 0zM576 160a10.666667 10.666667 0 1 1-21.333333 0 10.666667 10.666667 0 0 1 21.333333 0zM789.333333 160a10.666667 10.666667 0 1 1-21.333333 0 10.666667 10.666667 0 0 1 21.333333 0zM981.333333 160a10.666667 10.666667 0 1 1-21.333333 0 10.666667 10.666667 0 0 1 21.333333 0zM469.333333 224a10.666667 10.666667 0 1 1-21.333333 0 10.666667 10.666667 0 0 1 21.333333 0zM661.333333 224a10.666667 10.666667 0 1 1-21.333333 0 10.666667 10.666667 0 0 1 21.333333 0zM874.666667 224a10.666667 10.666667 0 1 1-21.333334 0 10.666667 10.666667 0 0 1 21.333334 0zM362.666667 298.666667a21.333333 21.333333 0 1 1-42.666667 0 21.333333 21.333333 0 0 1 42.666667 0zM576 298.666667a21.333333 21.333333 0 1 1-42.666667 0 21.333333 21.333333 0 0 1 42.666667 0zM789.333333 298.666667a21.333333 21.333333 0 1 1-42.666666 0 21.333333 21.333333 0 0 1 42.666666 0zM981.333333 298.666667a21.333333 21.333333 0 1 1-42.666666 0 21.333333 21.333333 0 0 1 42.666666 0z" fill="#000000" p-id="22854"></path><path d="M117.333333 458.666667m-32 0a32 32 0 1 0 64 0 32 32 0 1 0-64 0Z" fill="#000000" p-id="22855"></path><path d="M330.666667 458.666667m-32 0a32 32 0 1 0 64 0 32 32 0 1 0-64 0Z" fill="#000000" p-id="22856"></path><path d="M544 458.666667m-32 0a32 32 0 1 0 64 0 32 32 0 1 0-64 0Z" fill="#000000" p-id="22857"></path><path d="M757.333333 458.666667m-32 0a32 32 0 1 0 64 0 32 32 0 1 0-64 0Z" fill="#000000" p-id="22858"></path><path d="M949.333333 458.666667m-32 0a32 32 0 1 0 64 0 32 32 0 1 0-64 0Z" fill="#000000" p-id="22859"></path><path d="M224 544m-32 0a32 32 0 1 0 64 0 32 32 0 1 0-64 0Z" fill="#000000" p-id="22860"></path><path d="M437.333333 544m-32 0a32 32 0 1 0 64 0 32 32 0 1 0-64 0Z" fill="#000000" p-id="22861"></path><path d="M629.333333 544m-32 0a32 32 0 1 0 64 0 32 32 0 1 0-64 0Z" fill="#000000" p-id="22862"></path><path d="M842.666667 544m-32 0a32 32 0 1 0 64 0 32 32 0 1 0-64 0Z" fill="#000000" p-id="22863"></path><path d="M106.666667 618.666667m-42.666667 0a42.666667 42.666667 0 1 0 85.333333 0 42.666667 42.666667 0 1 0-85.333333 0Z" fill="#000000" p-id="22864"></path><path d="M341.333333 618.666667m-42.666666 0a42.666667 42.666667 0 1 0 85.333333 0 42.666667 42.666667 0 1 0-85.333333 0Z" fill="#000000" p-id="22865"></path><path d="M533.333333 618.666667m-42.666666 0a42.666667 42.666667 0 1 0 85.333333 0 42.666667 42.666667 0 1 0-85.333333 0Z" fill="#000000" p-id="22866"></path><path d="M746.666667 618.666667m-42.666667 0a42.666667 42.666667 0 1 0 85.333333 0 42.666667 42.666667 0 1 0-85.333333 0Z" fill="#000000" p-id="22867"></path><path d="M960 618.666667m-42.666667 0a42.666667 42.666667 0 1 0 85.333334 0 42.666667 42.666667 0 1 0-85.333334 0Z" fill="#000000" p-id="22868"></path><path d="M224 714.666667m-53.333333 0a53.333333 53.333333 0 1 0 106.666666 0 53.333333 53.333333 0 1 0-106.666666 0Z" fill="#000000" p-id="22869"></path><path d="M437.333333 714.666667m-53.333333 0a53.333333 53.333333 0 1 0 106.666667 0 53.333333 53.333333 0 1 0-106.666667 0Z" fill="#000000" p-id="22870"></path><path d="M629.333333 714.666667m-53.333333 0a53.333333 53.333333 0 1 0 106.666667 0 53.333333 53.333333 0 1 0-106.666667 0Z" fill="#000000" p-id="22871"></path><path d="M842.666667 714.666667m-53.333334 0a53.333333 53.333333 0 1 0 106.666667 0 53.333333 53.333333 0 1 0-106.666667 0Z" fill="#000000" p-id="22872"></path></svg>