<?xml version="1.0" encoding="UTF-8" standalone="no"?>
<svg
   version="1.0"
   width="800.000000"
   height="800.000000"
   viewBox="0 0 800.000000 800.000000"
   preserveAspectRatio="xMidYMid meet"
   id="svg7"
   sodipodi:docname="粒子星云.svg"
   inkscape:version="1.4.2 (f4327f4, 2025-05-13)"
   xmlns:inkscape="http://www.inkscape.org/namespaces/inkscape"
   xmlns:sodipodi="http://sodipodi.sourceforge.net/DTD/sodipodi-0.dtd"
   xmlns="http://www.w3.org/2000/svg"
   xmlns:svg="http://www.w3.org/2000/svg"
   xmlns:rdf="http://www.w3.org/1999/02/22-rdf-syntax-ns#"
   xmlns:dc="http://purl.org/dc/elements/1.1/">
  <defs
     id="defs7" />
  <sodipodi:namedview
     id="namedview7"
     pagecolor="#ffffff"
     bordercolor="#000000"
     borderopacity="0.25"
     inkscape:showpageshadow="2"
     inkscape:pageopacity="0.0"
     inkscape:pagecheckerboard="0"
     inkscape:deskcolor="#d1d1d1"
     inkscape:zoom="1.00875"
     inkscape:cx="400"
     inkscape:cy="400"
     inkscape:window-width="1920"
     inkscape:window-height="1009"
     inkscape:window-x="-8"
     inkscape:window-y="-8"
     inkscape:window-maximized="1"
     inkscape:current-layer="svg7" />
  <metadata
     id="metadata1">
    <rdf:RDF>
      <rdf:Description
         dc:format="image/svg+xml"
         dc:Label="1"
         dc:ContentProducer="001191330110MACRLGPT8B00000"
         dc:ProduceID="411505770"
         dc:ReservedCode1="aW5Hk8MkyBovR7l8uAWHKALf3K+uptgYLR1dLl6e4yI="
         dc:ContentPropagator="001191330110MACRLGPT8B00000"
         dc:PropagateID="411505770"
         dc:ReservedCode2="aW5Hk8MkyBovR7l8uAWHKALf3K+uptgYLR1dLl6e4yI=" />
    </rdf:RDF>
  </metadata>
  <g
     transform="matrix(0.12556199,0,0,-0.14645941,-98.529084,983.79747)"
     fill="#000000"
     stroke="none"
     id="g7">
    <path
       d="m 4506,6257 c -22,-16 -24,-63 -5,-83 8,-7 88,-32 179,-55 934,-234 1701,-750 2026,-1364 104,-197 163,-391 184,-600 48,-490 -150,-963 -576,-1375 -245,-238 -526,-422 -879,-576 -511,-223 -1041,-337 -1664,-358 -145,-5 -163,-12 -163,-60 -1,-58 8,-59 222,-52 498,18 900,92 1352,250 224,78 321,119 502,211 696,353 1169,901 1296,1500 27,126 37,373 21,507 -66,563 -427,1082 -1033,1487 -349,233 -791,424 -1254,541 -176,45 -183,45 -208,27 z"
       id="path1" />
    <path
       d="M 3243,5999 C 2154,5902 1275,5323 1017,4535 c -62,-187 -95,-414 -82,-555 7,-81 23,-110 61,-110 45,0 51,18 57,197 9,261 53,429 168,653 145,281 360,512 660,710 568,376 1354,539 2094,434 373,-53 723,-164 1053,-335 84,-43 161,-79 171,-79 27,0 43,24 39,62 -3,30 -11,37 -103,90 -369,211 -870,360 -1338,398 -146,11 -418,11 -554,-1 z"
       id="path2" />
    <path
       d="m 3407,5729 c -333,-32 -662,-126 -962,-274 -272,-134 -462,-273 -632,-464 -352,-394 -459,-855 -303,-1296 42,-117 73,-177 157,-305 316,-478 930,-812 1643,-894 171,-20 484,-20 655,-1 220,24 498,89 695,162 86,31 299,123 328,141 48,31 13,110 -45,99 -15,-2 -77,-27 -138,-55 -876,-399 -1941,-314 -2655,211 -108,80 -283,252 -350,345 -111,153 -185,311 -222,476 -29,127 -29,317 -1,442 152,659 853,1169 1773,1289 94,13 184,16 361,13 253,-3 269,0 269,46 0,44 -22,58 -106,67 -99,10 -351,9 -467,-2 z"
       id="path3" />
    <path
       d="m 5294,5422 c -20,-13 -32,-47 -24,-68 5,-12 53,-55 107,-95 306,-229 535,-548 613,-855 137,-535 -119,-1048 -720,-1444 -102,-67 -120,-84 -120,-112 0,-21 38,-58 60,-58 22,0 231,143 348,237 244,198 433,455 516,703 54,161 69,268 63,440 -4,117 -11,167 -35,260 -89,345 -324,673 -661,923 -99,74 -123,85 -147,69 z"
       id="path4" />
    <path
       d="m 3455,5374 c -16,-2 -90,-11 -164,-20 -102,-13 -138,-21 -152,-35 -24,-24 -24,-51 0,-80 l 18,-23 104,19 c 136,23 465,32 609,15 575,-66 1067,-337 1296,-714 115,-189 151,-397 112,-649 -9,-60 -8,-70 8,-88 20,-22 66,-25 83,-5 19,23 41,174 41,284 0,179 -49,354 -143,514 -231,391 -720,677 -1307,763 -108,16 -439,28 -505,19 z"
       id="path5" />
    <path
       d="m 3677,4739 c -42,-4 -105,-16 -140,-25 -147,-40 -355,-151 -393,-210 -16,-24 -16,-29 -3,-53 24,-43 59,-39 133,14 82,58 189,108 297,137 117,31 326,31 444,-1 84,-22 218,-82 282,-125 72,-49 153,-139 186,-205 28,-58 32,-75 32,-151 0,-77 -3,-92 -36,-161 -114,-238 -434,-422 -796,-459 -409,-42 -807,155 -863,427 -10,44 -16,56 -38,64 -35,13 -69,-2 -78,-35 -8,-35 28,-149 67,-211 94,-150 282,-273 507,-332 119,-31 331,-42 465,-24 274,37 532,155 696,320 120,119 172,217 192,355 45,324 -280,620 -741,676 -93,11 -100,11 -213,-1 z"
       id="path6" />
    <path
       d="m 1116,3144 c -33,-33 -20,-69 61,-166 405,-490 1088,-840 1838,-942 393,-54 833,-47 1235,19 125,21 158,30 173,47 18,21 16,49 -5,76 -14,16 -44,15 -174,-8 -367,-64 -823,-73 -1189,-24 -759,102 -1422,446 -1822,947 -57,71 -85,83 -117,51 z"
       id="path7" />
  </g>
</svg>
