<?xml version="1.0" standalone="no"?><!DOCTYPE svg PUBLIC "-//W3C//DTD SVG 1.1//EN" "http://www.w3.org/Graphics/SVG/1.1/DTD/svg11.dtd"><svg t="1776158833820" class="icon" viewBox="0 0 1024 1024" version="1.1" xmlns="http://www.w3.org/2000/svg" p-id="10588" xmlns:xlink="http://www.w3.org/1999/xlink" width="200" height="200"><path d="M23.4 547.6c12.3 0 22.3-10 22.3-22.3 0-73.6 59.9-133.6 133.6-133.6 6 0 12.2 0.4 18.4 1.3 8.2 1.1 16.5-2.5 21.3-9.3 4.8-6.8 5.3-15.8 1.4-23.2-5.1-9.7-7.7-20.2-7.7-31.2 0-36.8 30-66.8 66.8-66.8 23.8 0 46 12.9 57.9 33.7 4.4 7.7 13 12.1 21.8 11 8.8-1 16.2-7.2 18.8-15.7 1-3.2 2.1-6.7 3.6-10.9l0.9-2.5c1.3-3.4 2.6-6.7 4-10 0-0.1 0.1-0.4 0.2-0.5 1.6-3.6 3.3-7.4 5.2-11.2 0-0.1 0.1-0.2 0.1-0.3 34-67.2 98.9-112.6 173.8-121.1l2.1-0.2c3-0.3 6-0.6 9.1-0.8l2.8-0.2c4.2-0.2 7.9-0.3 11.3-0.3 122.7 0 222.6 99.9 222.6 222.6 0 3.9-0.1 7.9-0.4 12.4-0.3 6.3 2 12.5 6.5 17s10.7 6.8 17 6.4c2.6-0.2 5.3-0.3 8-0.3 73.6 0 133.6 59.9 133.6 133.6 0 12.3 10 22.3 22.3 22.3s22.3-10 22.3-22.3c0-93.8-72.8-170.8-164.9-177.6C853.6 204.3 735.5 89 591 89c-4.2 0-8.6 0.1-13.5 0.4l-3.3 0.2c-3.7 0.2-7.3 0.5-10.9 0.9l-2.6 0.3c-89.9 10.2-167.9 64.7-208.6 145.8 0 0.1-0.1 0.2-0.1 0.3-1 2-2 4-2.9 6-19.5-15.7-44.1-24.7-69.8-24.7-61.4 0-111.3 49.9-111.3 111.3 0 6.1 0.5 12.1 1.5 18.1-93.7 5-168.4 82.9-168.4 177.8 0 12.3 10 22.2 22.3 22.2zM22.3 667.8h979.5c12.2 0 22.3-10 22.3-22.3 0-12.2-10-22.3-22.3-22.3H22.3C10 623.3 0 633.3 0 645.6c0 12.2 10 22.2 22.3 22.2zM445.2 756.9c-12.2 0-22.3 10-22.3 22.3s10 22.3 22.3 22.3h133.6c12.2 0 22.3-10 22.3-22.3s-10-22.3-22.3-22.3H445.2zM89 756.9c-12.2 0-22.3 10-22.3 22.3s10 22.3 22.3 22.3h133.6c12.2 0 22.3-10 22.3-22.3s-10-22.3-22.3-22.3H89zM801.4 756.9c-12.2 0-22.3 10-22.3 22.3s10 22.3 22.3 22.3H935c12.2 0 22.3-10 22.3-22.3s-10-22.3-22.3-22.3H801.4zM1001.7 890.4H22.3C10 890.4 0 900.5 0 912.7S10 935 22.3 935h979.5c12.2 0 22.3-10 22.3-22.3s-10.1-22.3-22.4-22.3z" fill="" p-id="10589"></path></svg>